<svg width="96" height="55" viewBox="0 0 96 55" fill="none" xmlns="http://www.w3.org/2000/svg">
<circle cx="79" cy="28" r="16.5" stroke="white"/>
<path d="M85.75 29.799L76 35.4282C75 36.0056 73.75 35.2839 73.75 34.1292L73.75 22.8708C73.75 21.7161 75 20.9944 76 21.5718L85.75 27.201C86.75 27.7783 86.75 29.2217 85.75 29.799Z" stroke="white"/>
<path d="M3.048 16.4C3.416 15.344 4.08 14.48 5.04 13.808C6.016 13.136 7.192 12.8 8.568 12.8C9.784 12.8 10.864 13.072 11.808 13.616C12.768 14.16 13.512 14.936 14.04 15.944C14.584 16.952 14.856 18.128 14.856 19.472C14.856 20.816 14.584 22 14.04 23.024C13.512 24.032 12.768 24.816 11.808 25.376C10.864 25.92 9.784 26.192 8.568 26.192C7.208 26.192 6.04 25.856 5.064 25.184C4.104 24.496 3.432 23.632 3.048 22.592V32.144H1.968V12.968H3.048V16.4ZM13.752 19.472C13.752 18.288 13.528 17.264 13.08 16.4C12.632 15.536 12 14.88 11.184 14.432C10.384 13.968 9.456 13.736 8.4 13.736C7.392 13.736 6.48 13.976 5.664 14.456C4.848 14.92 4.208 15.592 3.744 16.472C3.28 17.336 3.048 18.336 3.048 19.472C3.048 20.624 3.28 21.64 3.744 22.52C4.208 23.384 4.848 24.056 5.664 24.536C6.48 25 7.392 25.232 8.4 25.232C9.456 25.232 10.384 25 11.184 24.536C12 24.072 12.632 23.408 13.08 22.544C13.528 21.68 13.752 20.656 13.752 19.472ZM19.1964 15.656C19.5164 14.696 20.0844 13.968 20.9004 13.472C21.7164 12.96 22.7564 12.704 24.0204 12.704V13.832H23.6604C22.3804 13.832 21.3164 14.2 20.4684 14.936C19.6204 15.656 19.1964 16.84 19.1964 18.488V26H18.1164V12.968H19.1964V15.656ZM38.2431 18.608C38.2431 19.184 38.2271 19.616 38.1951 19.904H26.9391C26.9711 21.072 27.2271 22.056 27.7071 22.856C28.1871 23.656 28.8191 24.256 29.6031 24.656C30.3871 25.056 31.2431 25.256 32.1711 25.256C33.4511 25.256 34.5231 24.944 35.3871 24.32C36.2511 23.68 36.7951 22.816 37.0191 21.728H38.1471C37.8911 23.056 37.2351 24.136 36.1791 24.968C35.1231 25.784 33.7871 26.192 32.1711 26.192C30.9551 26.192 29.8671 25.92 28.9071 25.376C27.9471 24.832 27.1951 24.056 26.6511 23.048C26.1071 22.024 25.8351 20.832 25.8351 19.472C25.8351 18.112 26.0991 16.928 26.6271 15.92C27.1711 14.912 27.9231 14.144 28.8831 13.616C29.8431 13.072 30.9391 12.8 32.1711 12.8C33.4191 12.8 34.4991 13.072 35.4111 13.616C36.3391 14.144 37.0431 14.856 37.5231 15.752C38.0031 16.632 38.2431 17.584 38.2431 18.608ZM37.1631 19.016C37.2111 17.864 37.0031 16.888 36.5391 16.088C36.0911 15.288 35.4751 14.696 34.6911 14.312C33.9071 13.912 33.0591 13.712 32.1471 13.712C31.2351 13.712 30.3871 13.912 29.6031 14.312C28.8351 14.696 28.2031 15.288 27.7071 16.088C27.2271 16.888 26.9711 17.864 26.9391 19.016H37.1631Z" fill="white"/>
<path d="M39.992 26.032L44.096 13L45.128 13L49.28 24.544L53.456 13L54.488 13L58.592 26.032L57.464 26.032L53.96 14.224L49.784 26.032L48.752 26.032L44.6 14.272L41.096 26.032L39.992 26.032Z" fill="white"/>
<path d="M13.384 43.824L18.184 31.968H19.336L13.936 45H12.808L7.408 31.968H8.584L13.384 43.824ZM22.27 29.064C22.014 29.064 21.798 28.984 21.622 28.824C21.446 28.648 21.358 28.416 21.358 28.128C21.358 27.856 21.446 27.632 21.622 27.456C21.798 27.28 22.014 27.192 22.27 27.192C22.526 27.192 22.742 27.28 22.918 27.456C23.094 27.632 23.182 27.856 23.182 28.128C23.182 28.416 23.094 28.648 22.918 28.824C22.742 28.984 22.526 29.064 22.27 29.064ZM22.798 31.968V45H21.718V31.968H22.798ZM38.4931 37.608C38.4931 38.184 38.4771 38.616 38.4451 38.904H27.1891C27.2211 40.072 27.4771 41.056 27.9571 41.856C28.4371 42.656 29.0691 43.256 29.8531 43.656C30.6371 44.056 31.4931 44.256 32.4211 44.256C33.7011 44.256 34.7731 43.944 35.6371 43.32C36.5011 42.68 37.0451 41.816 37.2691 40.728H38.3971C38.1411 42.056 37.4851 43.136 36.4291 43.968C35.3731 44.784 34.0371 45.192 32.4211 45.192C31.2051 45.192 30.1171 44.92 29.1571 44.376C28.1971 43.832 27.4451 43.056 26.9011 42.048C26.3571 41.024 26.0851 39.832 26.0851 38.472C26.0851 37.112 26.3491 35.928 26.8771 34.92C27.4211 33.912 28.1731 33.144 29.1331 32.616C30.0931 32.072 31.1891 31.8 32.4211 31.8C33.6691 31.8 34.7491 32.072 35.6611 32.616C36.5891 33.144 37.2931 33.856 37.7731 34.752C38.2531 35.632 38.4931 36.584 38.4931 37.608ZM37.4131 38.016C37.4611 36.864 37.2531 35.888 36.7891 35.088C36.3411 34.288 35.7251 33.696 34.9411 33.312C34.1571 32.912 33.3091 32.712 32.3971 32.712C31.4851 32.712 30.6371 32.912 29.8531 33.312C29.0851 33.696 28.4531 34.288 27.9571 35.088C27.4771 35.888 27.2211 36.864 27.1891 38.016H37.4131ZM58.7971 31.968L54.6931 45H53.6611L49.5091 33.456L45.3331 45H44.3011L40.1971 31.968H41.3251L44.8291 43.776L49.0051 31.968H50.0371L54.1891 43.728L57.6931 31.968H58.7971Z" fill="white"/>
<circle cx="79" cy="28" r="16.5" stroke="#FF7D29"/>
<path d="M85.75 29.799L76 35.4282C75 36.0056 73.75 35.2839 73.75 34.1292L73.75 22.8708C73.75 21.7161 75 20.9944 76 21.5718L85.75 27.201C86.75 27.7783 86.75 29.2217 85.75 29.799Z" stroke="#FF7D29"/>
<path d="M13.384 43.824L18.184 31.968H19.336L13.936 45H12.808L7.408 31.968H8.584L13.384 43.824ZM22.27 29.064C22.014 29.064 21.798 28.984 21.622 28.824C21.446 28.648 21.358 28.416 21.358 28.128C21.358 27.856 21.446 27.632 21.622 27.456C21.798 27.28 22.014 27.192 22.27 27.192C22.526 27.192 22.742 27.28 22.918 27.456C23.094 27.632 23.182 27.856 23.182 28.128C23.182 28.416 23.094 28.648 22.918 28.824C22.742 28.984 22.526 29.064 22.27 29.064ZM22.798 31.968V45H21.718V31.968H22.798ZM38.4931 37.608C38.4931 38.184 38.4771 38.616 38.4451 38.904H27.1891C27.2211 40.072 27.4771 41.056 27.9571 41.856C28.4371 42.656 29.0691 43.256 29.8531 43.656C30.6371 44.056 31.4931 44.256 32.4211 44.256C33.7011 44.256 34.7731 43.944 35.6371 43.32C36.5011 42.68 37.0451 41.816 37.2691 40.728H38.3971C38.1411 42.056 37.4851 43.136 36.4291 43.968C35.3731 44.784 34.0371 45.192 32.4211 45.192C31.2051 45.192 30.1171 44.92 29.1571 44.376C28.1971 43.832 27.4451 43.056 26.9011 42.048C26.3571 41.024 26.0851 39.832 26.0851 38.472C26.0851 37.112 26.3491 35.928 26.8771 34.92C27.4211 33.912 28.1731 33.144 29.1331 32.616C30.0931 32.072 31.1891 31.8 32.4211 31.8C33.6691 31.8 34.7491 32.072 35.6611 32.616C36.5891 33.144 37.2931 33.856 37.7731 34.752C38.2531 35.632 38.4931 36.584 38.4931 37.608ZM37.4131 38.016C37.4611 36.864 37.2531 35.888 36.7891 35.088C36.3411 34.288 35.7251 33.696 34.9411 33.312C34.1571 32.912 33.3091 32.712 32.3971 32.712C31.4851 32.712 30.6371 32.912 29.8531 33.312C29.0851 33.696 28.4531 34.288 27.9571 35.088C27.4771 35.888 27.2211 36.864 27.1891 38.016H37.4131ZM58.7971 31.968L54.6931 45H53.6611L49.5091 33.456L45.3331 45H44.3011L40.1971 31.968H41.3251L44.8291 43.776L49.0051 31.968H50.0371L54.1891 43.728L57.6931 31.968H58.7971Z" fill="white"/>
</svg>
